<svg width="24" height="24" viewBox="0 0 24 24" fill="none" xmlns="http://www.w3.org/2000/svg">
<path d="M20.7711 1.84754C20.6649 1.74154 20.5172 1.68904 20.3674 1.70354C20.2182 1.71854 20.0835 1.79904 20.0003 1.92404C19.5596 2.58454 18.8043 2.47354 17.5086 2.22204C15.9445 1.91754 13.9982 1.53854 12.2718 3.26204C12.0199 3.51354 11.8085 3.78954 11.6287 4.07954C10.5334 4.14854 9.51313 4.60204 8.73031 5.38304C8.1298 5.98254 7.90442 6.48254 7.55934 7.31304L1.53818 21.8085C1.46055 21.9955 1.50362 22.2105 1.64636 22.3535C1.7896 22.4965 2.00496 22.5395 2.19228 22.4615L16.7123 16.451C17.5191 16.117 18.0445 15.882 18.6455 15.282C19.4529 14.476 19.8851 13.437 19.9502 12.3795C20.2452 12.197 20.5247 11.9915 20.7701 11.746C23.4982 9.02404 21.9857 3.06004 20.7711 1.84754ZM4.50518 18.5H3.99683L4.50518 17.2755V18.5ZM13.5204 15.5H11.517V13.5H13.3191L13.5204 13.701V15.5ZM8.51194 12.5V10.5H10.314L10.5153 10.701V12.5H8.51194ZM10.5153 13.5V15.5H8.51194V13.5H10.5153ZM7.51025 10.5V12.5H6.48853L7.31943 10.5H7.51025ZM7.51025 13.5V15.5H5.50687V14.864L6.07333 13.5H7.51025ZM7.51025 16.5V18.5H5.50687V16.5H7.51025ZM5.50687 19.5H6.73244L5.50687 20.0075V19.5ZM8.51194 18.5V16.5H10.5153V17.934L9.14802 18.5H8.51194ZM11.517 16.5H13.5209V16.69L11.517 17.5195V16.5ZM14.5221 15.5V14.7005L15.3229 15.5H14.5221ZM11.517 12.5V11.7005L12.3179 12.5H11.517ZM8.51194 9.50004V8.70104L9.31229 9.50004H8.51194ZM3.58112 19.5H4.50518V20.422L2.92702 21.075L3.58112 19.5ZM20.0624 11.0395C20.0033 11.0985 19.9357 11.1485 19.8726 11.203C19.7033 10.3655 19.2951 9.56654 18.646 8.91804C18.4502 8.72254 18.1332 8.72254 17.9378 8.91804C17.742 9.11304 17.742 9.42954 17.9378 9.62504C19.3047 10.9895 19.3047 13.21 17.9378 14.5745C17.5507 14.961 17.2367 15.14 16.6372 15.3975L8.61362 7.38754C8.87606 6.77754 9.04885 6.47754 9.43801 6.08904C9.91281 5.61504 10.5013 5.29704 11.1409 5.15304C10.6841 6.68604 11.0607 8.41604 12.2708 9.62454C12.4666 9.82004 12.7837 9.82004 12.979 9.62454C13.1743 9.42904 13.1748 9.11304 12.979 8.91754C11.6122 7.55304 11.6122 5.33254 12.979 3.96754C14.3283 2.62054 15.8473 2.91604 17.3158 3.20154C18.4116 3.41454 19.5385 3.63404 20.3664 2.98804C21.2364 4.59104 22.0242 9.08154 20.0624 11.0395Z" fill="white"/>
</svg>
