<svg width="24" height="24" viewBox="0 0 24 24" fill="none" xmlns="http://www.w3.org/2000/svg">
<g clip-path="url(#clip0_98_61)">
<path d="M17.7637 2.49403C17.9914 2.51189 18.1906 2.3417 18.2084 2.11393C18.2262 1.88615 18.056 1.68705 17.8282 1.66925C17.701 1.65929 17.5734 1.65446 17.4444 1.65446C16.1439 1.65084 14.8961 2.16774 13.9793 3.08994L12.9536 4.11564C12.7896 4.27466 12.7856 4.53653 12.9447 4.70048C13.1037 4.86444 13.3656 4.86841 13.5295 4.70939C13.5325 4.70647 13.5355 4.7035 13.5384 4.70048L14.5642 3.67493C15.3263 2.90839 16.3635 2.47864 17.4444 2.48156C17.5516 2.48161 17.6582 2.48573 17.7637 2.49403Z" fill="white"/>
<path d="M19.4504 2.89521C19.6788 2.89521 19.864 2.71003 19.864 2.48161C19.864 2.25319 19.6788 2.06801 19.4504 2.06801C19.2219 2.06801 19.0368 2.25319 19.0368 2.48161C19.0368 2.71003 19.2219 2.89521 19.4504 2.89521Z" fill="white"/>
<path d="M12.8093 1.92L3.54125 11.1879C2.4125 12.3193 2.4125 14.1508 3.54125 15.2821L4.80302 16.5441L0.545868 20.8013C-0.184721 21.5358 -0.181553 22.7235 0.553009 23.4541C1.28475 24.1819 2.46696 24.1819 3.19871 23.4541L7.45591 19.1969L8.71773 20.4587C9.849 21.5875 11.6805 21.5875 12.8117 20.4587L22.0798 11.1905C24.6398 8.63054 24.6398 4.47996 22.0798 1.92C19.5199 -0.640001 15.3693 -0.640001 12.8093 1.92ZM2.61387 22.8693C2.20288 23.2774 1.53883 23.2751 1.13071 22.8641C0.724605 22.4551 0.724605 21.7951 1.13071 21.3861L5.38791 17.1289L6.87107 18.6121L2.61387 22.8693ZM12.2269 19.8739C11.4193 20.6811 10.1104 20.6811 9.30273 19.8739L4.12609 14.6974C3.31991 13.8893 3.31991 12.5811 4.12609 11.7729L6.83551 9.0636L7.57711 9.80525C7.87213 10.1007 7.87213 10.5793 7.57711 10.8748L6.30076 12.1512C5.68242 12.7695 5.68242 13.7721 6.30076 14.3905C6.9191 15.0088 7.92166 15.0088 8.54005 14.3905L11.4708 11.4597C11.7676 11.1657 12.2465 11.1681 12.5404 11.4648C12.8323 11.7596 12.8323 12.2344 12.5404 12.5292L11.642 13.4275C11.0237 14.0458 11.0237 15.0484 11.642 15.6668C12.2604 16.2851 13.263 16.2851 13.8813 15.6668L14.9864 14.5617C15.2856 14.2757 15.7568 14.2757 16.056 14.5617L16.7975 15.3033L12.2269 19.8739ZM21.495 10.6056L17.3824 14.7184L16.6408 13.9769C16.0219 13.3597 15.0203 13.3597 14.4015 13.9769L13.2964 15.0819C13.001 15.3773 12.5222 15.3773 12.2268 15.0819C11.9315 14.7866 11.9315 14.3077 12.2268 14.0124L13.1251 13.1141C13.7413 12.4935 13.7377 11.491 13.1172 10.8748C12.4997 10.2618 11.5033 10.2618 10.8859 10.8748L7.95506 13.8056C7.65587 14.0915 7.18469 14.0915 6.8855 13.8056C6.59064 13.51 6.59064 13.0316 6.8855 12.736L8.16186 11.4597C8.77944 10.841 8.77944 9.8391 8.16186 9.22041L7.4202 8.47881L13.3942 2.50485C15.6256 0.262335 19.2525 0.253433 21.495 2.48488C23.7375 4.71633 23.7464 8.34317 21.5149 10.5857C21.5083 10.5923 21.5016 10.599 21.495 10.6056Z" fill="white"/>
<path d="M19.0368 10.3401H18.2096C17.9811 10.3401 17.796 10.5252 17.796 10.7537C17.796 10.9821 17.9811 11.1673 18.2096 11.1673H19.0368C19.2652 11.1673 19.4504 10.9821 19.4504 10.7537C19.4504 10.5252 19.2652 10.3401 19.0368 10.3401Z" fill="white"/>
<path d="M17.6748 5.08441L16.8476 4.25721C16.6833 4.09849 16.4214 4.10307 16.2627 4.26737C16.1079 4.42765 16.1079 4.68178 16.2627 4.84206L17.0899 5.66925C17.2542 5.82793 17.516 5.8234 17.6748 5.6591C17.8296 5.49882 17.8296 5.24469 17.6748 5.08441Z" fill="white"/>
<path d="M14.0736 7.85846C13.8451 7.85846 13.66 8.04363 13.66 8.27206V9.09926C13.66 9.32768 13.8451 9.51286 14.0736 9.51286C14.302 9.51286 14.4872 9.32768 14.4872 9.09926V8.27206C14.4872 8.04363 14.302 7.85846 14.0736 7.85846Z" fill="white"/>
<path d="M21.1048 7.85846C21.3332 7.85846 21.5184 7.67328 21.5184 7.44486C21.5184 7.21643 21.3332 7.03126 21.1048 7.03126C20.8763 7.03126 20.6912 7.21643 20.6912 7.44486C20.6912 7.67328 20.8763 7.85846 21.1048 7.85846Z" fill="white"/>
<path d="M10.3511 9.09926C10.5795 9.09926 10.7647 8.91408 10.7647 8.68566C10.7647 8.45723 10.5795 8.27206 10.3511 8.27206C10.1227 8.27206 9.93752 8.45723 9.93752 8.68566C9.93752 8.91408 10.1227 9.09926 10.3511 9.09926Z" fill="white"/>
</g>
<defs>
<clipPath id="clip0_98_61">
<rect width="24" height="24" fill="white"/>
</clipPath>
</defs>
</svg>
